<svg width="33" height="32" viewBox="0 0 33 32" fill="none" xmlns="http://www.w3.org/2000/svg">
<style>
		path {
			fill: #495360;
		}
		@media ( prefers-color-scheme: dark ) {
			path {
				fill: #facc14;
			}
		}
	</style>
<path d="M14.6309 0.450739C14.7072 0.526823 14.922 0.436641 15.1087 0.250012C15.5479 -0.189485 16.9389 -0.0189672 17.335 0.523019C17.646 0.948194 17.738 4.42456 17.4867 6.25773C17.371 7.10271 17.2799 7.25018 16.9299 7.15866C16.6818 7.09376 16.4582 7.18909 16.3799 7.39295C16.1255 8.05622 15.3255 6.91474 15.2112 5.72514C15.1541 5.13191 14.9693 4.53175 14.8001 4.39144C14.583 4.2113 14.4924 3.57309 14.4924 2.22417C14.4924 1.17264 14.5548 0.374431 14.6309 0.450739Z" fill="#495360"/>
<path d="M4.7289 6.60011C3.69039 5.60721 3.66309 5.11289 4.59755 4.23301C4.94394 3.90696 5.28184 3.77158 5.5121 3.86691C5.71304 3.94993 6.07868 4.07077 6.32483 4.13521C6.57097 4.19989 7.00732 4.46528 7.29442 4.72531C8.20718 5.55127 10.2894 8.40912 10.1918 8.70159C10.1401 8.85645 9.70218 9.00973 9.21839 9.04218C8.19039 9.1111 6.253 8.05712 4.7289 6.60011Z" fill="#495360"/>
<path d="M23.4116 6.38864C23.4906 6.1821 23.9579 5.7106 24.4502 5.34114C25.7693 4.35071 26.776 4.44537 27.5541 5.63273C27.9146 6.18299 27.9031 6.22081 27.105 7.10405C26.2061 8.09919 22.6103 10.5934 22.3908 10.3741C22.3154 10.2985 22.123 10.3452 21.9632 10.4779C21.1901 11.1195 20.8891 9.46982 21.653 8.77835C21.8992 8.55569 22.1006 8.25538 22.1006 8.11127C22.1006 7.96716 22.3633 7.60531 22.6844 7.3068C23.0057 7.0085 23.3329 6.59541 23.4116 6.38864Z" fill="#495360"/>
<path d="M26.3484 14.3412C26.7532 14.1391 27.6498 13.8502 28.3406 13.699C29.9717 13.3418 29.9786 13.3414 30.8104 13.5079C31.7576 13.6972 32.4642 14.9823 32.0861 15.8273C31.5025 17.1306 31.4564 17.1449 28.2757 17.0111C26.2672 16.9267 25.234 16.7915 24.9919 16.5814C24.7977 16.4129 24.5206 16.2749 24.3765 16.2749C24.2324 16.2749 24.1145 16.1207 24.1145 15.9323C24.1145 15.7436 23.9516 15.527 23.7527 15.4507C23.4504 15.3345 23.4779 15.2634 23.9205 15.0179C24.2118 14.8566 24.7115 14.7207 25.0311 14.7163C25.3506 14.712 25.9434 14.543 26.3484 14.3412Z" fill="#495360"/>
<path d="M0.173628 16.6168C-0.195592 15.646 0.0194505 15.0723 0.862838 14.7769C1.88166 14.4202 3.48609 14.4329 5.62913 14.8149C7.83102 15.2074 8.10491 15.4382 7.21521 16.1509C6.35369 16.8412 5.71752 16.9777 2.80023 17.0983L0.394488 17.1979L0.173628 16.6168Z" fill="#495360"/>
<path d="M21.9097 22.1044C22.5725 22.1955 22.816 22.0832 22.6864 21.7457C22.6058 21.5354 22.6459 21.4557 22.7882 21.5437C22.9176 21.6235 23.1104 21.9183 23.217 22.1987C23.3237 22.479 24.1205 23.1801 24.9876 23.7568C27.0712 25.1418 27.5357 25.7285 27.1822 26.5278C26.657 27.7154 26.4453 27.7846 25.3309 27.1314C24.39 26.58 21.9891 24.2778 21.9882 23.9262C21.9882 23.841 21.7544 23.4437 21.4689 23.0432C21.0424 22.4448 21.0086 22.2924 21.2784 22.1888C21.459 22.1197 21.7432 22.0816 21.9097 22.1044Z" fill="#495360"/>
<path d="M3.90342 26.4938C4.75643 25.0592 7.73815 22.411 8.83709 22.1121C9.35265 21.9717 9.47998 22.0223 9.58985 22.4097C9.66257 22.6663 9.62319 23.0045 9.50213 23.1613C9.38107 23.3182 9.34258 23.5073 9.41687 23.5814C9.76416 23.9289 7.24564 26.7767 5.6891 27.7966C5.24178 28.0898 5.01667 28.1256 4.79268 27.9396C4.62821 27.8031 4.42995 27.7548 4.35252 27.8322C4.14196 28.043 3.72351 26.7964 3.90342 26.4938Z" fill="#495360"/>
<path d="M15.0657 31.0709C14.6871 30.3385 14.6329 26.4428 14.9843 25.2073C15.4202 23.6742 16.4343 24.4823 17.0579 26.8595C17.5267 28.6461 17.4312 30.0597 16.7796 30.9745C16.1731 31.8262 15.4766 31.8653 15.0657 31.0709Z" fill="#495360"/>
</svg>
