<svg width="28" height="27" viewBox="0 0 28 27" fill="none" xmlns="http://www.w3.org/2000/svg">
<path fill-rule="evenodd" clip-rule="evenodd" d="M0.942599 13.1604C0.942599 5.89468 6.83489 0.00461926 14.1034 0.00461926C21.3719 0.00461926 27.2642 5.89467 27.2642 13.1604C27.2642 20.4262 21.3719 26.3162 14.1034 26.3162C6.8349 26.3162 0.942599 20.4262 0.942599 13.1604Z" fill="#FFA841"/>
<mask id="mask0_6_88" style="mask-type:alpha" maskUnits="userSpaceOnUse" x="7" y="3" width="14" height="20">
<path fill-rule="evenodd" clip-rule="evenodd" d="M7.44049 22.7144V3.60674H20.7668V22.7144H7.44049Z" fill="white"/>
</mask>
<g mask="url(#mask0_6_88)">
<path fill-rule="evenodd" clip-rule="evenodd" d="M13.1443 3.72322C12.7575 3.51663 12.2811 3.5863 11.9696 3.89458C11.6573 4.20206 11.582 4.67769 11.783 5.06685C12.9633 7.37776 12.9745 10.1123 11.8135 12.4336C11.7782 12.4968 11.7102 12.5361 11.6373 12.5353C11.5644 12.5345 11.498 12.4936 11.4635 12.4296C11.2521 12.0356 11.1008 11.6128 11.0151 11.174C10.9727 10.969 10.8278 10.8009 10.6308 10.7288C10.4346 10.6567 10.2144 10.6928 10.051 10.8241C7.75455 12.6554 6.86173 15.7358 7.82421 18.5111C8.73464 21.1295 11.2601 22.8351 14.0291 22.7021C17.4154 22.7021 19.7831 20.9846 20.5278 17.9922C21.632 13.5746 18.9223 6.78523 13.1443 3.72323M16.9373 18.0387C16.7379 19.412 15.5128 20.4001 14.1284 20.304C12.8055 20.3048 11.6733 19.3559 11.4419 18.0531C11.4179 17.9202 11.4627 17.7841 11.5604 17.692C11.6589 17.5991 11.7966 17.5615 11.928 17.5927C12.7431 17.5799 13.4966 17.1547 13.9298 16.4637C14.4286 15.936 14.5704 15.1649 14.2925 14.4939C14.21 14.3473 14.2284 14.1648 14.3373 14.0375C14.447 13.9101 14.624 13.8645 14.7817 13.923C16.3576 14.6396 17.2456 16.3356 16.9373 18.0387" fill="white"/>
</g>
</svg>
