<svg width="23" height="22" viewBox="0 0 23 22" fill="none" xmlns="http://www.w3.org/2000/svg">
<g opacity="0.5">
<mask id="mask0_178_104" style="mask-type:alpha" maskUnits="userSpaceOnUse" x="5" y="0" width="13" height="22">
<path fill-rule="evenodd" clip-rule="evenodd" d="M5.58572 22V0H17.7477V22H5.58572Z" fill="#495360"/>
</mask>
<g mask="url(#mask0_178_104)">
<path fill-rule="evenodd" clip-rule="evenodd" d="M17.6266 6.5725C17.5405 6.47442 17.4177 6.4185 17.2875 6.41667H13.8329V5.12417C13.8329 4.8675 13.8879 4.57417 14.3002 4.57417H17.0493C17.1712 4.57967 17.2894 4.52925 17.37 4.43667C17.4507 4.35325 17.4965 4.24142 17.4983 4.125V0.45833C17.4983 0.20533 17.293 0 17.0401 0H13.0723C8.67382 0 8.33477 3.75833 8.33477 4.90417V6.41667H6.04388C5.79097 6.41667 5.58571 6.622 5.58571 6.875V10.5417C5.58571 10.7947 5.79097 11 6.04388 11H8.33477V21.5417C8.33477 21.7947 8.54003 22 8.79294 22H13.3747C13.6276 22 13.8329 21.7947 13.8329 21.5417V11H16.9027C17.1391 11.0009 17.337 10.8231 17.3608 10.5875L17.7457 6.92083C17.7567 6.79341 17.7136 6.66691 17.6266 6.5725" fill="#495360"/>
</g>
</g>
</svg>
