<svg width="23" height="22" viewBox="0 0 23 22" fill="none" xmlns="http://www.w3.org/2000/svg">
<g opacity="0.5">
<mask id="mask0_178_110" style="mask-type:alpha" maskUnits="userSpaceOnUse" x="0" y="3" width="23" height="17">
<path fill-rule="evenodd" clip-rule="evenodd" d="M0.337344 19.2501V3.66342H22.3373V19.2501H0.337344Z" fill="#495360"/>
</mask>
<g mask="url(#mask0_178_110)">
<path fill-rule="evenodd" clip-rule="evenodd" d="M9.28981 15.4551L15.4956 11.4584V11.4859C15.6267 11.4016 15.7056 11.2567 15.7056 11.1009C15.7056 10.9451 15.6267 10.8002 15.4956 10.7159L9.28981 6.74674C9.14864 6.65599 8.96989 6.64957 8.82323 6.73024C8.67565 6.80999 8.58398 6.96399 8.58398 7.13174V15.0701C8.58398 15.2378 8.67565 15.3918 8.82323 15.4716C8.9699 15.5522 9.14865 15.5458 9.28981 15.4551M3.94565 3.66675H18.7223C20.717 3.66675 22.334 5.28375 22.334 7.27842V15.6384C22.334 17.6331 20.717 19.2501 18.7223 19.2501H3.94565C1.95098 19.2501 0.333984 17.6331 0.333984 15.6384V7.27842C0.333984 5.28375 1.95098 3.66675 3.94565 3.66675" fill="#495360"/>
</g>
</g>
</svg>
