<svg width="22" height="22" viewBox="0 0 22 22" fill="none" xmlns="http://www.w3.org/2000/svg">
<g opacity="0.5">
<mask id="mask0_178_94" style="mask-type:alpha" maskUnits="userSpaceOnUse" x="0" y="0" width="22" height="22">
<path fill-rule="evenodd" clip-rule="evenodd" d="M0 22V0H22V22H0Z" fill="#495360"/>
</mask>
<g mask="url(#mask0_178_94)">
<path fill-rule="evenodd" clip-rule="evenodd" d="M16.5642 10.3145C16.4945 10.3154 16.4285 10.3484 16.3854 10.4034C16.3423 10.4584 16.3277 10.5308 16.3442 10.5986C16.8923 12.8174 16.0105 15.1434 14.1295 16.442C12.2485 17.7406 9.76067 17.7406 7.87967 16.442C5.99867 15.1434 5.11684 12.8174 5.665 10.5986C5.6815 10.5308 5.66683 10.4584 5.62375 10.4034C5.58067 10.3484 5.51467 10.3154 5.445 10.3145H0.45833C0.20533 10.3145 0 10.5198 0 10.7727V16.0424C0.0055 19.3307 2.66933 21.994 5.95833 21.9995H16.0417C19.3307 21.994 21.9945 19.3307 22 16.0424V10.7727C22 10.5198 21.7947 10.3145 21.5417 10.3145H16.5642Z" fill="#495360"/>
<path fill-rule="evenodd" clip-rule="evenodd" d="M16.9583 3.20815C16.4523 3.20815 16.0416 3.61882 16.0416 4.12482V5.04149C16.0416 5.54749 16.4523 5.95816 16.9583 5.95816H17.875C18.381 5.95816 18.7916 5.54749 18.7916 5.04149V4.12482C18.7916 3.61882 18.381 3.20815 17.875 3.20815H16.9583ZM22 8.479C22 8.732 21.7946 8.93732 21.5416 8.93732H15.8675C15.7181 8.93824 15.5778 8.86675 15.4916 8.74483C14.4604 7.29008 12.7875 6.42565 11.0046 6.42565C9.22165 6.42565 7.54874 7.29008 6.51749 8.74483C6.43132 8.86675 6.29107 8.93824 6.14166 8.93732H0.45833C0.20533 8.93732 0 8.732 0 8.479V5.95816C0.00367 3.78474 1.19167 1.78549 3.09833 0.742335C3.16525 0.704755 3.24591 0.703835 3.31466 0.738665C3.38249 0.773495 3.42833 0.840415 3.43749 0.916495V4.12482C3.43749 4.50432 3.74549 4.81232 4.12499 4.81232C4.50449 4.81232 4.81249 4.50432 4.81249 4.12482V0.458155C4.81066 0.228075 4.97841 0.0319048 5.20666 -0.000175244H5.71083C5.8355 -0.00475524 5.9565 0.0410748 6.04725 0.127245C6.13708 0.214325 6.1875 0.333495 6.1875 0.458165V4.12483C6.1875 4.50433 6.4955 4.81233 6.875 4.81233C7.2545 4.81233 7.5625 4.50433 7.5625 4.12483V0.458165C7.5625 0.205165 7.76783 -0.000165244 8.02083 -0.000165244H8.47916C8.73216 -0.000165244 8.93749 0.205165 8.93749 0.458165V4.12483C8.93749 4.50433 9.24549 4.81233 9.62499 4.81233C10.0045 4.81233 10.3125 4.50433 10.3125 4.12483V0.458165C10.3125 0.205165 10.5178 -0.000165244 10.7708 -0.000165244H16.0416C19.3306 0.00533476 21.9954 2.66916 22 5.95816V8.479Z" fill="#495360"/>
<path fill-rule="evenodd" clip-rule="evenodd" d="M11 14.6629C12.5189 14.6629 13.75 13.4318 13.75 11.9129C13.75 10.394 12.5189 9.16289 11 9.16289C9.48108 9.16289 8.25 10.394 8.25 11.9129C8.25 13.4318 9.48108 14.6629 11 14.6629" fill="#495360"/>
</g>
</g>
</svg>
