<svg width="24" height="22" viewBox="0 0 24 22" fill="none" xmlns="http://www.w3.org/2000/svg">
<path d="M0.792087 7.49271H2.73902C3.27637 7.49271 3.71248 7.92925 3.71248 8.46713V20.1601C3.71248 20.698 3.27636 21.1345 2.73902 21.1345H0.792087" stroke="#49535F" stroke-linecap="round" stroke-linejoin="round"/>
<path d="M3.71257 18.2091C10.8691 21.8421 10.52 21.3633 16.6478 21.3633C19.2143 21.3633 20.5074 19.6912 21.2621 17.2409V17.2253L23.1217 10.9851V10.9734C23.3002 10.3845 23.19 9.74585 22.8243 9.25054C22.4586 8.75522 21.8804 8.46174 21.2651 8.45882H16.4869C15.8823 8.45882 15.3109 8.17801 14.9423 7.69926C14.5727 7.21955 14.4469 6.5965 14.601 6.01148L15.461 2.75098C15.6668 1.96803 15.2816 1.15096 14.5473 0.810673C13.814 0.470385 12.9413 0.705366 12.4771 1.36839L7.71066 8.12048C7.34498 8.63822 6.75113 8.94633 6.11728 8.94633H3.71259" stroke="#49535F" stroke-linecap="round" stroke-linejoin="round"/>
</svg>
