<svg width="27" height="27" viewBox="0 0 27 27" fill="none" xmlns="http://www.w3.org/2000/svg">
<path fill-rule="evenodd" clip-rule="evenodd" d="M0.632932 13.1604C0.632932 5.89468 6.52298 0.00461926 13.7887 0.00461926C21.0545 0.00461926 26.9445 5.89467 26.9445 13.1604C26.9445 20.4262 21.0545 26.3162 13.7887 26.3162C6.52299 26.3162 0.632932 20.4262 0.632932 13.1604Z" fill="#7CA982"/>
<mask id="mask0_6_102" style="mask-type:alpha" maskUnits="userSpaceOnUse" x="4" y="3" width="19" height="18">
<path fill-rule="evenodd" clip-rule="evenodd" d="M4.88942 20.2759V3.892H22.6885V20.2759H4.88942Z" fill="white"/>
</mask>
<g mask="url(#mask0_6_102)">
<path fill-rule="evenodd" clip-rule="evenodd" d="M22.6885 11.7543C22.687 10.8138 21.9251 10.0519 20.9844 10.0504H15.89C15.8325 10.0504 15.7779 10.0239 15.7416 9.97924C15.706 9.93381 15.6923 9.87474 15.7052 9.8187C16.0006 8.6464 16.1831 7.44761 16.2505 6.24048C16.2831 5.6089 16.0786 4.98716 15.6772 4.49871C15.3424 4.11703 14.8607 3.89665 14.3532 3.89287C13.9617 3.87319 13.5792 4.01404 13.2944 4.28288C13.0088 4.55173 12.846 4.92507 12.8422 5.31659C12.871 8.21551 10.6238 10.629 7.72971 10.8077H5.45749C5.14392 10.8077 4.88943 11.0622 4.88943 11.3757V18.1914C4.88943 18.5049 5.14393 18.7593 5.45749 18.7593C8.89006 18.7593 10.0088 19.2402 10.9957 19.6628C11.8652 20.0853 12.8225 20.2943 13.789 20.2739H18.7121C19.3006 20.2739 19.8475 19.9695 20.1588 19.4697C20.4701 18.9706 20.5011 18.3458 20.2413 17.8172C21.073 17.3947 21.4108 16.3822 20.9988 15.5454C21.8304 15.1228 22.1682 14.1103 21.7562 13.2735C22.328 12.9827 22.6885 12.3958 22.6885 11.7543" fill="white"/>
</g>
</svg>
