<svg width="27" height="27" viewBox="0 0 27 27" fill="none" xmlns="http://www.w3.org/2000/svg">
<path fill-rule="evenodd" clip-rule="evenodd" d="M0.313517 13.1604C0.313517 5.89468 6.20581 0.00461926 13.4743 0.00461926C20.7428 0.00461926 26.6351 5.89467 26.6351 13.1604C26.6351 20.4262 20.7428 26.3162 13.4743 26.3162C6.20582 26.3162 0.313517 20.4262 0.313517 13.1604Z" fill="#9AA8C9"/>
<mask id="mask0_6_96" style="mask-type:alpha" maskUnits="userSpaceOnUse" x="4" y="3" width="19" height="18">
<path fill-rule="evenodd" clip-rule="evenodd" d="M4.71969 20.9109V3.24736H22.2282V20.9109H4.71969Z" fill="white"/>
</mask>
<g mask="url(#mask0_6_96)">
<path fill-rule="evenodd" clip-rule="evenodd" d="M22.1584 9.62225C21.9938 9.18033 21.573 8.88721 21.1018 8.88571H16.5275C16.3682 8.88571 16.2262 8.785 16.1728 8.63468L14.5308 3.98016C14.3662 3.53973 13.9454 3.24737 13.475 3.24737C13.0046 3.24737 12.5837 3.53973 12.4191 3.98016L12.4154 3.99218L10.7772 8.63468C10.7245 8.785 10.5825 8.88571 10.4232 8.88571H5.84743C5.37324 8.88571 4.94941 9.18183 4.78709 9.62826C4.62477 10.0739 4.76004 10.5737 5.12375 10.8781L9.01943 14.1099C9.13892 14.2091 9.18476 14.3707 9.13591 14.518L7.49918 19.4266C7.34437 19.8926 7.5082 20.4051 7.90423 20.6938C8.30101 20.9831 8.83908 20.9824 9.23511 20.6923L13.2525 17.7461C13.3848 17.6491 13.5644 17.6491 13.6967 17.7461L17.7126 20.6915C18.1086 20.9831 18.6467 20.9839 19.0442 20.6953C19.4417 20.4059 19.6056 19.8926 19.45 19.4266L17.8133 14.515C17.7644 14.3677 17.8103 14.2061 17.9298 14.1069L21.833 10.8706C22.1922 10.564 22.3222 10.0657 22.1584 9.62225" fill="white"/>
</g>
</svg>
